<?xml version="1.0" encoding="UTF-8"?>
<svg xmlns="http://www.w3.org/2000/svg" xmlns:xlink="http://www.w3.org/1999/xlink" width="px" height="px" viewBox="0 0 170 170" version="1.1">
<g id="surface1">
<path style="fill:none;stroke-width:4;stroke-linecap:butt;stroke-linejoin:round;stroke:rgb(0%,0%,0%);stroke-opacity:1;stroke-miterlimit:10;" d="M 63.021927 200.611485 L 19.809528 25.672394 L 193.039506 75.544078 Z M 63.021927 200.611485 " transform="matrix(0.749658,0,0,0.749658,6.719936,3.188072)"/>
<path style="fill:none;stroke-width:4;stroke-linecap:butt;stroke-linejoin:round;stroke:rgb(0%,0%,0%);stroke-opacity:1;stroke-miterlimit:10;" d="M 106.390648 50.610842 L 127.97861 138.109046 L 41.413122 113.165388 Z M 106.390648 50.610842 " transform="matrix(0.749658,0,0,0.749658,6.719936,3.188072)"/>
<path style="fill:none;stroke-width:4;stroke-linecap:butt;stroke-linejoin:round;stroke:rgb(0%,0%,0%);stroke-opacity:1;stroke-miterlimit:10;" d="M 84.91211 125.030169 L 74.188474 81.562445 L 117.192445 93.911823 Z M 84.91211 125.030169 " transform="matrix(0.749658,0,0,0.749658,6.719936,3.188072)"/>
<path style="fill:none;stroke-width:4;stroke-linecap:butt;stroke-linejoin:round;stroke:rgb(0%,0%,0%);stroke-opacity:1;stroke-miterlimit:10;" d="M 63.459627 38.152039 L 74.183263 81.619763 L 31.174082 69.270386 Z M 63.459627 38.152039 " transform="matrix(0.749658,0,0,0.749658,6.719936,3.188072)"/>
<path style="fill:none;stroke-width:4;stroke-linecap:butt;stroke-linejoin:round;stroke:rgb(0%,0%,0%);stroke-opacity:1;stroke-miterlimit:10;" d="M 149.467568 62.928955 L 160.196415 106.396678 L 117.187234 94.047301 Z M 149.467568 62.928955 " transform="matrix(0.749658,0,0,0.749658,6.719936,3.188072)"/>
<path style="fill:none;stroke-width:4;stroke-linecap:butt;stroke-linejoin:round;stroke:rgb(0%,0%,0%);stroke-opacity:1;stroke-miterlimit:10;" d="M 84.917321 125.061434 L 95.640957 168.523947 L 52.631776 156.17978 Z M 84.917321 125.061434 " transform="matrix(0.749658,0,0,0.749658,6.719936,3.188072)"/>
</g>
</svg>
